<svg width="95" height="28" viewBox="0 0 95 28" fill="none" xmlns="http://www.w3.org/2000/svg">
<path d="M91.4815 0H3.51852C1.57529 0 0 1.567 0 3.5V24.5C0 26.433 1.57529 28 3.51852 28H91.4815C93.4247 28 95 26.433 95 24.5V3.5C95 1.567 93.4247 0 91.4815 0Z" fill="#222222"/>
<path d="M91.4815 0.56C92.2653 0.56 93.0171 0.869749 93.5714 1.42111C94.1256 1.97246 94.437 2.72026 94.437 3.5V24.5C94.437 25.2797 94.1256 26.0275 93.5714 26.5789C93.0171 27.1303 92.2653 27.44 91.4815 27.44H3.51852C2.73466 27.44 1.9829 27.1303 1.42862 26.5789C0.874351 26.0275 0.562963 25.2797 0.562963 24.5V3.5C0.562963 2.72026 0.874351 1.97246 1.42862 1.42111C1.9829 0.869749 2.73466 0.56 3.51852 0.56H91.4815ZM91.4815 0H3.51852C2.58535 0 1.6904 0.368749 1.03055 1.02513C0.3707 1.6815 0 2.57174 0 3.5V24.5C0 25.4283 0.3707 26.3185 1.03055 26.9749C1.6904 27.6313 2.58535 28 3.51852 28H91.4815C92.4146 28 93.3096 27.6313 93.9695 26.9749C94.6293 26.3185 95 25.4283 95 24.5V3.5C95 2.57174 94.6293 1.6815 93.9695 1.02513C93.3096 0.368749 92.4146 0 91.4815 0Z" fill="#222222"/>
<path d="M18.3248 15.125H9.6451C9.03623 15.125 8.54395 15.6147 8.54395 16.2204C8.54395 16.826 9.03623 17.3157 9.6451 17.3157H19.6462C19.6462 17.3157 20.1644 16.8003 19.6073 15.9626C19.0373 15.125 18.3248 15.125 18.3248 15.125Z" fill="white"/>
<path d="M17.8843 5.91114L12.4951 15.1895C12.1971 15.7178 12.3656 16.3879 12.8967 16.6843C13.4278 16.9807 14.1015 16.8132 14.3995 16.2848L19.7886 7.0065C20.0866 6.47815 19.9182 5.80805 19.387 5.51165C18.8559 5.20237 18.1822 5.38279 17.8843 5.91114Z" fill="white"/>
<path d="M24.4783 19.1715L18.9466 9.62256C18.9466 9.62256 18.1434 10.2411 18.1434 11.4653C18.1434 12.6896 18.6487 13.5143 18.6487 13.5143L22.574 20.2798C22.8719 20.8081 23.5456 20.9885 24.0767 20.6793C24.5949 20.37 24.7763 19.6999 24.4783 19.1715Z" fill="white"/>
<path d="M25.0355 15.125H21.9652C21.3563 15.125 20.864 15.6147 20.864 16.2204C20.864 16.826 21.3563 17.3157 21.9652 17.3157H25.0355C25.6443 17.3157 26.1366 16.826 26.1366 16.2204C26.1366 15.6276 25.6443 15.125 25.0355 15.125Z" fill="white"/>
<path d="M17.9492 7.9214L16.7832 5.89821C16.4853 5.38274 15.7987 5.20233 15.2805 5.49872C14.7623 5.79511 14.5809 6.4781 14.8789 6.99357L16.0448 9.01676C16.3428 9.53223 17.0294 9.71264 17.5476 9.41625C18.0657 9.11986 18.2471 8.44975 17.9492 7.9214Z" fill="white"/>
<path d="M10.1892 19.1585L10.8887 17.9601C10.8887 17.9601 11.0572 17.625 11.7179 17.625C12.4174 17.625 13.0911 18.2049 13.1429 18.424L12.0935 20.2539C11.7956 20.7822 11.1219 20.9626 10.5908 20.6534C10.0596 20.357 9.89123 19.6869 10.1892 19.1585Z" fill="white"/>
<path d="M44.5032 20.707H43.1887L42.4686 18.4562H39.9657L39.2798 20.707H38L40.4797 13.0444H42.0113L44.5032 20.707ZM42.2515 17.512L41.6003 15.5111C41.5315 15.3067 41.4024 14.8253 41.2119 14.0676H41.1888C41.113 14.3935 40.9908 14.8749 40.823 15.5111L40.1834 17.512H42.2515Z" fill="white"/>
<path d="M50.8801 17.8755C50.8801 18.8152 50.6248 19.5579 50.1143 20.1032C49.657 20.5886 49.0892 20.831 48.4114 20.831C47.6797 20.831 47.1542 20.5696 46.8341 20.0468H46.8109V22.9574H45.5769V16.9997C45.5769 16.409 45.5612 15.8027 45.5311 15.1808H46.6164L46.6853 16.0566H46.7085C47.12 15.3967 47.7446 15.0674 48.5827 15.0674C49.238 15.0674 49.785 15.3248 50.2226 15.8401C50.6613 16.356 50.8801 17.0343 50.8801 17.8755ZM49.6229 17.9204C49.6229 17.3826 49.5013 16.9393 49.2571 16.5903C48.9902 16.2264 48.6319 16.0445 48.1828 16.0445C47.8783 16.0445 47.6016 16.1458 47.3544 16.3456C47.1067 16.5472 46.9446 16.8103 46.8688 17.1362C46.8306 17.2882 46.8115 17.4126 46.8115 17.5104V18.4317C46.8115 18.8336 46.9354 19.1727 47.1831 19.4497C47.4309 19.7266 47.7527 19.8648 48.1486 19.8648C48.6134 19.8648 48.9752 19.6863 49.2339 19.3305C49.4932 18.9741 49.6229 18.5042 49.6229 17.9204Z" fill="white"/>
<path d="M57.2687 17.8755C57.2687 18.8152 57.0134 19.5579 56.5023 20.1032C56.0456 20.5886 55.4778 20.831 54.8 20.831C54.0683 20.831 53.5428 20.5696 53.2232 20.0468H53.2001V22.9574H51.966V16.9997C51.966 16.409 51.9504 15.8027 51.9203 15.1808H53.0056L53.0745 16.0566H53.0976C53.5086 15.3967 54.1332 15.0674 54.9719 15.0674C55.6266 15.0674 56.1735 15.3248 56.6123 15.8401C57.0493 16.356 57.2687 17.0343 57.2687 17.8755ZM56.0115 17.9204C56.0115 17.3826 55.8893 16.9393 55.6451 16.5903C55.3782 16.2264 55.0211 16.0445 54.5713 16.0445C54.2663 16.0445 53.9902 16.1458 53.7425 16.3456C53.4947 16.5472 53.3332 16.8103 53.2574 17.1362C53.2198 17.2882 53.2001 17.4126 53.2001 17.5104V18.4317C53.2001 18.8336 53.324 19.1727 53.5705 19.4497C53.8183 19.7261 54.1401 19.8648 54.5372 19.8648C55.002 19.8648 55.3638 19.6863 55.6225 19.3305C55.8818 18.9741 56.0115 18.5042 56.0115 17.9204Z" fill="white"/>
<path d="M64.4115 18.5576C64.4115 19.2094 64.184 19.7397 63.7273 20.1491C63.2255 20.5965 62.5269 20.8199 61.6291 20.8199C60.8002 20.8199 60.1357 20.661 59.6327 20.3426L59.9186 19.3194C60.4604 19.6453 61.0549 19.8088 61.7026 19.8088C62.1674 19.8088 62.5292 19.704 62.7891 19.4956C63.0478 19.2872 63.1769 19.0073 63.1769 18.6584C63.1769 18.3475 63.0704 18.0855 62.8568 17.873C62.6444 17.6606 62.2895 17.4631 61.794 17.2805C60.4454 16.7802 59.7716 16.0472 59.7716 15.0834C59.7716 14.4534 60.0078 13.937 60.4807 13.5351C60.9518 13.1326 61.5805 12.9316 62.3665 12.9316C63.0675 12.9316 63.6498 13.0531 64.1146 13.2955L63.8061 14.2963C63.3719 14.0613 62.8811 13.9439 62.3318 13.9439C61.8977 13.9439 61.5585 14.0504 61.3154 14.2623C61.1099 14.4517 61.0068 14.6826 61.0068 14.9561C61.0068 15.259 61.1243 15.5094 61.3605 15.7063C61.566 15.8883 61.9393 16.0852 62.4811 16.2977C63.1439 16.5631 63.6307 16.8735 63.9438 17.2293C64.2558 17.584 64.4115 18.0279 64.4115 18.5576Z" fill="white"/>
<path d="M68.4917 16.1026H67.1314V18.7852C67.1314 19.4675 67.3711 19.8084 67.8515 19.8084C68.0721 19.8084 68.255 19.7894 68.3997 19.7514L68.4338 20.6836C68.1907 20.774 67.8706 20.8195 67.4741 20.8195C66.9867 20.8195 66.6059 20.6715 66.3309 20.3761C66.0571 20.0802 65.9194 19.5838 65.9194 18.8866V16.1015H65.109V15.1802H65.9194V14.1686L67.1314 13.8047V15.1802H68.4917V16.1026Z" fill="white"/>
<path d="M74.6289 17.8983C74.6289 18.7476 74.3847 19.4449 73.8973 19.9902C73.3862 20.5516 72.7078 20.8314 71.8621 20.8314C71.0471 20.8314 70.3982 20.5625 69.9143 20.0247C69.4304 19.4869 69.1885 18.8081 69.1885 17.9899C69.1885 17.1337 69.4374 16.4324 69.9369 15.8871C70.4353 15.3413 71.1079 15.0684 71.9536 15.0684C72.7686 15.0684 73.4244 15.3373 73.9193 15.8756C74.3928 16.3978 74.6289 17.0721 74.6289 17.8983ZM73.3485 17.9381C73.3485 17.4285 73.2391 16.9915 73.0175 16.627C72.7587 16.186 72.3888 15.966 71.9096 15.966C71.4135 15.966 71.0367 16.1865 70.778 16.627C70.5563 16.9921 70.4469 17.436 70.4469 17.9611C70.4469 18.4707 70.5563 18.9077 70.778 19.2716C71.0448 19.7126 71.4176 19.9326 71.8986 19.9326C72.3697 19.9326 72.7396 19.708 73.0065 19.2601C73.2339 18.8887 73.3485 18.4471 73.3485 17.9381Z" fill="white"/>
<path d="M78.6403 16.2604C78.5182 16.238 78.3879 16.2264 78.2513 16.2264C77.8172 16.2264 77.4815 16.3894 77.2453 16.7159C77.0398 17.0037 76.9368 17.3676 76.9368 17.807V20.706H75.7033L75.7149 16.9208C75.7149 16.284 75.6993 15.7042 75.6686 15.1814H76.7435L76.7886 16.2385H76.8228C76.953 15.8752 77.1585 15.5827 77.4398 15.3633C77.7147 15.1658 78.0117 15.0674 78.3318 15.0674C78.4458 15.0674 78.5488 15.0754 78.6403 15.0898V16.2604Z" fill="white"/>
<path d="M84.1595 17.6821C84.1595 17.9021 84.1451 18.0875 84.1144 18.2389H80.4122C80.4267 18.7848 80.6055 19.2022 80.9493 19.4901C81.2613 19.7475 81.6648 19.8765 82.1603 19.8765C82.7084 19.8765 83.2085 19.7895 83.6583 19.615L83.8516 20.4672C83.326 20.6952 82.7055 20.8086 81.9895 20.8086C81.1282 20.8086 80.4521 20.5565 79.9601 20.0526C79.4693 19.5488 79.2233 18.8723 79.2233 18.0236C79.2233 17.1904 79.4519 16.4966 79.9098 15.9433C80.389 15.3525 81.0367 15.0571 81.8517 15.0571C82.6523 15.0571 83.2583 15.3525 83.6699 15.9433C83.9957 16.4125 84.1595 16.9929 84.1595 17.6821ZM82.9828 17.3637C82.9909 16.9998 82.9104 16.6854 82.7431 16.42C82.5296 16.0786 82.2014 15.9081 81.7597 15.9081C81.3563 15.9081 81.0281 16.0745 80.7774 16.4085C80.5719 16.6739 80.4498 16.9923 80.4122 17.3631H82.9828V17.3637Z" fill="white"/>
<path d="M42.304 10.7496H41.5921V9.6149H38.7475V10.7496H38.0237L38 8.97464H38.347C38.5191 8.79715 38.6565 8.53936 38.7593 8.20127C38.8622 7.86107 38.9284 7.47649 38.9581 7.04754L39.0708 5H41.7938V8.97464H42.3425L42.304 10.7496ZM39.1954 8.97464H41.0463V5.64659H39.7857L39.7145 6.94612C39.6611 7.81458 39.488 8.49076 39.1954 8.97464Z" fill="white"/>
<path d="M43.0052 7.86846C43.0052 7.53249 43.0675 7.23032 43.192 6.96197C43.3166 6.69149 43.4916 6.48442 43.7171 6.34073C43.9425 6.19493 44.2015 6.12203 44.4942 6.12203C44.9273 6.12203 45.2783 6.271 45.5472 6.56894C45.8181 6.86688 45.9644 7.26202 45.9862 7.75436L45.9892 7.93502C45.9892 8.27311 45.9279 8.57528 45.8053 8.84152C45.6846 9.10777 45.5106 9.31379 45.2832 9.45959C45.0578 9.60539 44.7968 9.67829 44.5001 9.67829C44.0473 9.67829 43.6844 9.5177 43.4115 9.19651C43.1406 8.87322 43.0052 8.44321 43.0052 7.9065V7.86846ZM43.726 7.93502C43.726 8.2879 43.7942 8.56471 43.9306 8.76545C44.0671 8.96408 44.2569 9.06339 44.5001 9.06339C44.7434 9.06339 44.9322 8.96197 45.0667 8.75911C45.2031 8.55626 45.2713 8.25938 45.2713 7.86846C45.2713 7.52192 45.2011 7.24723 45.0607 7.04437C44.9223 6.84152 44.7335 6.7401 44.4942 6.7401C44.2589 6.7401 44.072 6.84046 43.9336 7.0412C43.7952 7.23983 43.726 7.53777 43.726 7.93502Z" fill="white"/>
<path d="M48.2209 9.06339C48.4009 9.06339 48.5502 9.0074 48.6688 8.8954C48.7875 8.78341 48.8508 8.64501 48.8587 8.48019H49.5379C49.53 8.69361 49.4677 8.89329 49.3511 9.07924C49.2344 9.26307 49.0762 9.40887 48.8765 9.51664C48.6767 9.62441 48.4612 9.67829 48.2298 9.67829C47.781 9.67829 47.425 9.52298 47.162 9.21236C46.899 8.90174 46.7675 8.47279 46.7675 7.92552V7.84628C46.7675 7.32435 46.898 6.90703 47.159 6.59429C47.4201 6.27945 47.776 6.12203 48.2269 6.12203C48.6085 6.12203 48.919 6.24142 49.1583 6.48019C49.3995 6.71685 49.5261 7.02853 49.5379 7.41521H48.8587C48.8508 7.2187 48.7875 7.05705 48.6688 6.93027C48.5522 6.80349 48.4029 6.7401 48.2209 6.7401C47.9876 6.7401 47.8076 6.83096 47.6811 7.01268C47.5545 7.19229 47.4903 7.46593 47.4883 7.8336V7.95721C47.4883 8.32911 47.5506 8.60697 47.6752 8.79081C47.8017 8.97253 47.9836 9.06339 48.2209 9.06339Z" fill="white"/>
<path d="M52.9117 6.79715H51.8706V9.6149H51.1498V6.79715H50.1205V6.18542H52.9117V6.79715Z" fill="white"/>
<path d="M54.8557 8.51189L55.5083 6.18542H56.2766L55.0011 10.1347C54.8053 10.7116 54.4731 11 54.0044 11C53.8996 11 53.784 10.981 53.6574 10.9429V10.3471L53.7938 10.3566C53.9758 10.3566 54.1122 10.3207 54.2032 10.2488C54.2961 10.1791 54.3693 10.0608 54.4227 9.89382L54.5265 9.59905L53.3993 6.18542H54.1765L54.8557 8.51189Z" fill="white"/>
<path d="M59.7185 9.6149H58.9977V6.80666H57.746V9.6149H57.0252V6.18542H59.7185V9.6149Z" fill="white"/>
<path d="M63.5076 9.6149H62.7868V8.22979H61.538V9.6149H60.8172V6.18542H61.538V7.6149H62.7868V6.18542H63.5076V9.6149Z" fill="white"/>
<path d="M64.4461 7.86846C64.4461 7.53249 64.5084 7.23032 64.6329 6.96197C64.7575 6.69149 64.9325 6.48442 65.158 6.34073C65.3834 6.19493 65.6424 6.12203 65.9351 6.12203C66.3682 6.12203 66.7192 6.271 66.9881 6.56894C67.259 6.86688 67.4053 7.26202 67.4271 7.75436L67.4301 7.93502C67.4301 8.27311 67.3688 8.57528 67.2462 8.84152C67.1255 9.10777 66.9515 9.31379 66.7241 9.45959C66.4987 9.60539 66.2376 9.67829 65.941 9.67829C65.4882 9.67829 65.1253 9.5177 64.8524 9.19651C64.5815 8.87322 64.4461 8.44321 64.4461 7.9065V7.86846ZM65.1669 7.93502C65.1669 8.2879 65.2351 8.56471 65.3715 8.76545C65.508 8.96408 65.6978 9.06339 65.941 9.06339C66.1843 9.06339 66.3731 8.96197 66.5076 8.75911C66.644 8.55626 66.7122 8.25938 66.7122 7.86846C66.7122 7.52192 66.642 7.24723 66.5016 7.04437C66.3632 6.84152 66.1744 6.7401 65.9351 6.7401C65.6998 6.7401 65.5129 6.84046 65.3745 7.0412C65.2361 7.23983 65.1669 7.53777 65.1669 7.93502Z" fill="white"/>
<path d="M70.2147 9.6149V6.18542H71.5169C71.9559 6.18542 72.2901 6.26783 72.5195 6.43265C72.7489 6.59535 72.8636 6.8299 72.8636 7.13629C72.8636 7.29477 72.8171 7.4374 72.7241 7.56418C72.6332 7.68885 72.4977 7.785 72.3178 7.85261C72.5274 7.8991 72.6935 7.99313 72.8161 8.13471C72.9387 8.27628 73 8.44321 73 8.6355C73 8.95457 72.8893 9.19757 72.6678 9.3645C72.4483 9.53143 72.1319 9.6149 71.7186 9.6149H70.2147ZM70.9355 8.15372V9.00634H71.7245C72.0943 9.00634 72.2792 8.86476 72.2792 8.58162C72.2792 8.29636 72.0914 8.15372 71.7156 8.15372H70.9355ZM70.9355 7.60222H71.5288C71.9381 7.60222 72.1428 7.47332 72.1428 7.21553C72.1428 6.94506 71.949 6.8056 71.5614 6.79715H70.9355V7.60222Z" fill="white"/>
</svg>
