<svg width="95" height="28" viewBox="0 0 95 28" fill="none" xmlns="http://www.w3.org/2000/svg">
<path d="M91.4815 0H3.51852C1.57529 0 0 1.567 0 3.5V24.5C0 26.433 1.57529 28 3.51852 28H91.4815C93.4247 28 95 26.433 95 24.5V3.5C95 1.567 93.4247 0 91.4815 0Z" fill="#222222"/>
<path d="M47.9504 15.2245C47.3595 15.2273 46.7826 15.4041 46.2927 15.7327C45.8027 16.0612 45.4216 16.5268 45.1973 17.0707C44.9731 17.6145 44.9159 18.2123 45.0329 18.7884C45.1499 19.3646 45.4358 19.8934 45.8547 20.308C46.2735 20.7227 46.8064 21.0047 47.3861 21.1183C47.9659 21.232 48.5665 21.1722 49.1122 20.9467C49.6579 20.7211 50.1241 20.3398 50.4521 19.8509C50.7801 19.3619 50.9552 18.7873 50.9552 18.1995C50.9609 17.8061 50.887 17.4155 50.7379 17.051C50.5887 16.6866 50.3674 16.3557 50.087 16.0781C49.8066 15.8006 49.473 15.5819 49.1059 15.4353C48.7389 15.2886 48.3459 15.2169 47.9504 15.2245ZM47.9504 20.0055C47.587 20.0308 47.2243 19.9467 46.9096 19.7643C46.5948 19.5818 46.3425 19.3094 46.1855 18.9824C46.0285 18.6554 45.974 18.289 46.029 17.9308C46.0841 17.5726 46.2463 17.2392 46.4944 16.9738C46.7425 16.7085 47.0651 16.5236 47.4203 16.443C47.7755 16.3625 48.1468 16.3902 48.486 16.5224C48.8252 16.6545 49.1166 16.8852 49.3223 17.1843C49.5279 17.4834 49.6384 17.8371 49.6393 18.1995C49.6506 18.4291 49.6156 18.6586 49.5363 18.8746C49.4571 19.0905 49.3351 19.2885 49.1777 19.4568C49.0203 19.6251 48.8306 19.7604 48.6198 19.8546C48.4091 19.9489 48.1814 20.0002 47.9504 20.0055ZM41.3989 15.2245C40.8077 15.2259 40.2302 15.4015 39.7393 15.7293C39.2484 16.057 38.8661 16.5221 38.6408 17.0659C38.4156 17.6096 38.3573 18.2075 38.4735 18.7842C38.5897 19.3608 38.8751 19.8902 39.2936 20.3056C39.7122 20.721 40.2451 21.0036 40.8251 21.1178C41.405 21.2321 42.006 21.1727 42.5521 20.9474C43.0981 20.722 43.5648 20.3407 43.8931 19.8516C44.2214 19.3625 44.3967 18.7876 44.3967 18.1995C44.4024 17.8061 44.3285 17.4155 44.1794 17.051C44.0302 16.6866 43.8088 16.3557 43.5285 16.0781C43.2481 15.8006 42.9145 15.5819 42.5474 15.4353C42.1803 15.2886 41.7874 15.2169 41.3919 15.2245H41.3989ZM41.3989 20.0055C41.0353 20.0322 40.6721 19.9494 40.3565 19.7679C40.0408 19.5864 39.7875 19.3145 39.6293 18.9878C39.4712 18.661 39.4156 18.2944 39.4698 17.9358C39.524 17.5772 39.6855 17.2431 39.9333 16.9771C40.1811 16.711 40.5036 16.5254 40.8589 16.4442C41.2143 16.363 41.5859 16.3902 41.9255 16.5221C42.2651 16.654 42.5569 16.8845 42.763 17.1837C42.969 17.4829 43.0798 17.8368 43.0808 18.1995C43.0921 18.4291 43.0571 18.6586 42.9778 18.8746C42.8986 19.0905 42.7766 19.2885 42.6192 19.4568C42.4618 19.6251 42.2721 19.7604 42.0613 19.8546C41.8505 19.9489 41.6229 20.0002 41.3919 20.0055H41.3989ZM33.5948 16.1415V17.4015H36.6348C36.5872 17.995 36.3392 18.555 35.9311 18.9905C35.627 19.2987 35.2614 19.5401 34.8578 19.6992C34.4542 19.8584 34.0216 19.9317 33.5878 19.9145C32.6919 19.9145 31.8328 19.5605 31.1993 18.9304C30.5659 18.3003 30.21 17.4456 30.21 16.5545C30.21 15.6634 30.5659 14.8087 31.1993 14.1786C31.8328 13.5485 32.6919 13.1945 33.5878 13.1945C34.4448 13.1806 35.2723 13.5053 35.8889 14.0975L36.7826 13.2085C36.3663 12.7892 35.8697 12.4573 35.3221 12.2325C34.7746 12.0076 34.1872 11.8944 33.5948 11.8995C32.9692 11.8753 32.3452 11.9769 31.76 12.1984C31.1748 12.4198 30.6407 12.7565 30.1894 13.1882C29.7382 13.6199 29.3792 14.1378 29.134 14.7108C28.8888 15.2839 28.7625 15.9002 28.7625 16.523C28.7625 17.1458 28.8888 17.7621 29.134 18.3352C29.3792 18.9082 29.7382 19.4261 30.1894 19.8578C30.6407 20.2895 31.1748 20.6262 31.76 20.8476C32.3452 21.0691 32.9692 21.1707 33.5948 21.1465C34.1972 21.1736 34.7983 21.072 35.3579 20.8486C35.9175 20.6253 36.4225 20.2852 36.8389 19.8515C37.5761 19.0457 37.9698 17.9865 37.9367 16.8975C37.9389 16.6322 37.9154 16.3673 37.8663 16.1065L33.5948 16.1415ZM65.4796 17.1215C65.2961 16.5844 64.9529 16.1154 64.4955 15.7767C64.0381 15.4379 63.488 15.2454 62.9182 15.2245C62.5332 15.2237 62.1522 15.3015 61.7987 15.4531C61.4452 15.6046 61.1267 15.8266 60.8629 16.1055C60.5991 16.3843 60.3956 16.714 60.2649 17.0742C60.1343 17.4343 60.0793 17.8173 60.1033 18.1995C60.0948 18.5907 60.1656 18.9797 60.3115 19.3431C60.4575 19.7065 60.6756 20.0369 60.9528 20.3146C61.2299 20.5923 61.5606 20.8116 61.9248 20.9593C62.2891 21.107 62.6796 21.1802 63.073 21.1745C63.5652 21.1771 64.0504 21.0583 64.4852 20.8286C64.9199 20.599 65.2906 20.2656 65.5641 19.8585L64.5437 19.1585C64.3914 19.411 64.1758 19.6199 63.918 19.7647C63.6602 19.9095 63.369 19.9852 63.073 19.9845C62.7682 19.9961 62.4669 19.9161 62.2084 19.7551C61.9498 19.594 61.746 19.3593 61.6233 19.0815L65.6274 17.4365L65.4796 17.1215ZM61.3982 18.1155C61.3839 17.899 61.4132 17.6818 61.4844 17.4767C61.5555 17.2716 61.6671 17.0827 61.8126 16.921C61.9581 16.7593 62.1346 16.6282 62.3316 16.5352C62.5287 16.4422 62.7425 16.3893 62.9604 16.3795C63.1874 16.3646 63.4138 16.4164 63.6114 16.5284C63.8091 16.6404 63.9693 16.8077 64.0722 17.0095L61.3982 18.1155ZM58.147 20.9995H59.463V12.2495H58.147V20.9995ZM55.9937 15.8895H55.9445C55.7461 15.6689 55.5032 15.4925 55.2315 15.3719C54.9599 15.2513 54.6657 15.1891 54.3682 15.1895C53.5991 15.2266 52.8739 15.5566 52.3429 16.1111C51.8118 16.6656 51.5156 17.4021 51.5156 18.168C51.5156 18.9339 51.8118 19.6704 52.3429 20.2249C52.8739 20.7794 53.5991 21.1094 54.3682 21.1465C54.6664 21.1515 54.962 21.0914 55.2344 20.9705C55.5067 20.8495 55.7491 20.6707 55.9445 20.4465H55.9867V20.8735C55.9867 22.0145 55.3745 22.6235 54.3893 22.6235C54.0611 22.6159 53.7427 22.5113 53.4746 22.323C53.2064 22.1348 53.0006 21.8714 52.8833 21.5665L51.7363 22.0425C51.9522 22.5649 52.3201 23.0113 52.7928 23.3244C53.2655 23.6374 53.8214 23.8029 54.3893 23.7995C55.9304 23.7995 57.2041 22.8965 57.2041 20.6985V15.3995H55.9937V15.8895ZM54.4878 20.0055C54.0339 19.9657 53.6114 19.7582 53.3036 19.4239C52.9959 19.0896 52.8252 18.6528 52.8252 18.1995C52.8252 17.7462 52.9959 17.3094 53.3036 16.9751C53.6114 16.6408 54.0339 16.4333 54.4878 16.3935C54.7129 16.405 54.9333 16.4612 55.1362 16.5587C55.3391 16.6563 55.5203 16.7932 55.6692 16.9615C55.8181 17.1298 55.9316 17.3261 56.003 17.5387C56.0744 17.7513 56.1024 17.976 56.0852 18.1995C56.1044 18.424 56.0776 18.65 56.0065 18.8639C55.9354 19.0778 55.8214 19.2751 55.6714 19.4439C55.5214 19.6128 55.3386 19.7496 55.1339 19.8461C54.9293 19.9426 54.7071 19.9968 54.4808 20.0055H54.4878ZM71.6441 12.2495H68.4985V20.9995H69.8145V17.6815H71.6511C72.0262 17.7083 72.4027 17.658 72.7574 17.5336C73.112 17.4093 73.437 17.2136 73.7123 16.9587C73.9875 16.7039 74.207 16.3954 74.3571 16.0525C74.5072 15.7095 74.5847 15.3395 74.5847 14.9655C74.5847 14.5915 74.5072 14.2214 74.3571 13.8785C74.207 13.5356 73.9875 13.2271 73.7123 12.9723C73.437 12.7174 73.112 12.5217 72.7574 12.3974C72.4027 12.273 72.0262 12.2227 71.6511 12.2495H71.6441ZM71.6441 16.4495H69.8074V13.4675H71.6722C72.0726 13.4675 72.4565 13.6257 72.7396 13.9073C73.0227 14.1889 73.1817 14.5708 73.1817 14.969C73.1817 15.3672 73.0227 15.7491 72.7396 16.0307C72.4565 16.3123 72.0726 16.4705 71.6722 16.4705L71.6441 16.4495ZM79.7578 15.1895C79.2787 15.161 78.8017 15.2724 78.3854 15.5099C77.9691 15.7474 77.6316 16.1008 77.4145 16.5265L78.5826 17.0095C78.6978 16.7983 78.8722 16.625 79.0846 16.5107C79.297 16.3964 79.5382 16.3459 79.7789 16.3655C79.946 16.3461 80.1152 16.36 80.2768 16.4063C80.4384 16.4527 80.5891 16.5306 80.7201 16.6355C80.8511 16.7404 80.9598 16.8702 81.0399 17.0174C81.1199 17.1645 81.1697 17.326 81.1863 17.4925V17.5835C80.7637 17.3609 80.2923 17.2455 79.8141 17.2475C78.5545 17.2475 77.2808 17.9475 77.2808 19.2145C77.2932 19.4847 77.3599 19.7496 77.4771 19.9936C77.5942 20.2377 77.7594 20.4559 77.9627 20.6354C78.1661 20.8148 78.4036 20.9519 78.6612 21.0385C78.9187 21.1251 79.1911 21.1594 79.4622 21.1395C79.7936 21.1632 80.1253 21.0977 80.4225 20.9499C80.7196 20.8021 80.9713 20.5774 81.1511 20.2995H81.1933V20.9995H82.46V17.6325C82.46 16.0995 81.2919 15.2105 79.793 15.2105L79.7578 15.1895ZM79.5959 19.9845C79.1667 19.9845 78.5685 19.7675 78.5685 19.2425C78.5685 18.5425 79.3145 18.3115 79.9759 18.3115C80.394 18.3012 80.8071 18.4028 81.1722 18.6055C81.1282 18.9845 80.948 19.3349 80.6648 19.5921C80.3816 19.8494 80.0145 19.9962 79.6311 20.0055L79.5959 19.9845ZM87.0763 15.3995L85.5704 19.1935H85.5282L83.9659 15.3995H82.5585L84.9019 20.7055L83.5648 23.6525H84.937L88.54 15.3995H87.0763ZM75.2471 20.9995H76.563V12.2495H75.2471V20.9995Z" fill="white"/>
<path d="M29.6331 9.98872H29.1124V8.58872H29.5557C29.7578 8.37563 29.9105 8.12101 30.0029 7.84282C30.0953 7.56463 30.1252 7.26966 30.0905 6.97872V4.89972H32.9053V8.58172H33.3768V9.98172H32.8561V9.09972H29.6331V9.98872ZM30.6113 6.99972C30.6441 7.56436 30.5042 8.12566 30.2101 8.60972H32.3213V5.41772H30.6113V6.99972ZM37.585 8.55372C37.1736 8.96066 36.617 9.18909 36.0368 9.18909C35.4566 9.18909 34.9 8.96066 34.4887 8.55372C34.0888 8.13268 33.866 7.57542 33.866 6.99622C33.866 6.41701 34.0888 5.85975 34.4887 5.43872C34.6914 5.23554 34.9326 5.07428 35.1983 4.96424C35.464 4.85419 35.749 4.79754 36.0368 4.79754C36.3246 4.79754 36.6096 4.85419 36.8753 4.96424C37.141 5.07428 37.3822 5.23554 37.585 5.43872C37.9864 5.85895 38.2102 6.41651 38.2102 6.99622C38.2102 7.57592 37.9864 8.13349 37.585 8.55372ZM34.8898 8.20372C35.1944 8.5055 35.6069 8.67494 36.0368 8.67494C36.4668 8.67494 36.8792 8.5055 37.1838 8.20372C37.4845 7.87403 37.651 7.44484 37.651 6.99972C37.651 6.55459 37.4845 6.1254 37.1838 5.79572C36.8792 5.49393 36.4668 5.3245 36.0368 5.3245C35.6069 5.3245 35.1944 5.49393 34.8898 5.79572C34.5891 6.1254 34.4226 6.55459 34.4226 6.99972C34.4226 7.44484 34.5891 7.87403 34.8898 8.20372ZM40.9416 9.19072C40.6511 9.19646 40.3624 9.14366 40.093 9.0355C39.8235 8.92733 39.5789 8.76604 39.3738 8.56134C39.1686 8.35663 39.0073 8.11275 38.8994 7.84437C38.7915 7.57599 38.7394 7.28867 38.7461 6.99972C38.7394 6.71076 38.7915 6.42344 38.8994 6.15506C39.0073 5.88669 39.1686 5.6428 39.3738 5.4381C39.5789 5.23339 39.8235 5.0721 40.093 4.96394C40.3624 4.85577 40.6511 4.80297 40.9416 4.80872C41.2361 4.80146 41.5283 4.86068 41.7965 4.98192C42.0646 5.10316 42.3017 5.28327 42.4898 5.50872L42.1098 5.87272C41.9708 5.69719 41.7916 5.55731 41.5871 5.46475C41.3827 5.3722 41.1589 5.32967 40.9346 5.34072C40.7186 5.33513 40.5037 5.3732 40.3029 5.45261C40.1021 5.53202 39.9196 5.65112 39.7664 5.80272C39.4613 6.13438 39.2921 6.56765 39.2921 7.01722C39.2921 7.46678 39.4613 7.90006 39.7664 8.23172C39.9196 8.38331 40.1021 8.50242 40.3029 8.58183C40.5037 8.66124 40.7186 8.6993 40.9346 8.69372C41.1823 8.69152 41.4264 8.63446 41.6491 8.5267C41.8719 8.41894 42.0677 8.26317 42.2224 8.07072L42.6024 8.44872C42.4108 8.6798 42.1706 8.8662 41.8987 8.99472C41.5983 9.13005 41.2713 9.19701 40.9416 9.19072ZM44.812 9.09972H44.2701V5.41772H43.0879V4.89972H45.9872V5.41772H44.812V9.09972ZM49.7168 4.89972L48.1194 8.44172C48.0555 8.65124 47.9277 8.83584 47.7537 8.97002C47.5798 9.10419 47.3682 9.1813 47.1483 9.19072C47.0028 9.18888 46.8592 9.15793 46.7261 9.09972L46.8668 8.60272C46.9523 8.65225 47.0493 8.67879 47.1483 8.67972C47.2517 8.68747 47.355 8.663 47.4438 8.60972C47.5286 8.53832 47.594 8.44685 47.6338 8.34372L47.7887 8.00772L46.3813 4.90672H47.0216L48.0631 7.31472L49.0764 4.89972H49.7168ZM50.329 9.09972V4.89972H53.3831V9.09972H52.8412V5.41772H50.8709V9.09972H50.329ZM54.3472 9.09972V4.89972H54.889V6.69872H57.0001V4.89972H57.542V9.09972H57.0001V7.20272H54.889V9.09972H54.3472ZM61.9683 8.55372C61.5569 8.96066 61.0003 9.18909 60.4201 9.18909C59.84 9.18909 59.2834 8.96066 58.872 8.55372C58.4721 8.13268 58.2494 7.57542 58.2494 6.99622C58.2494 6.41701 58.4721 5.85975 58.872 5.43872C59.0748 5.23554 59.316 5.07428 59.5817 4.96424C59.8474 4.85419 60.1323 4.79754 60.4201 4.79754C60.708 4.79754 60.9929 4.85419 61.2586 4.96424C61.5243 5.07428 61.7655 5.23554 61.9683 5.43872C62.3697 5.85895 62.5936 6.41651 62.5936 6.99622C62.5936 7.57592 62.3697 8.13349 61.9683 8.55372ZM59.2731 8.20372C59.5778 8.5055 59.9902 8.67494 60.4201 8.67494C60.8501 8.67494 61.2625 8.5055 61.5672 8.20372C61.8678 7.87403 62.0344 7.44484 62.0344 6.99972C62.0344 6.55459 61.8678 6.1254 61.5672 5.79572C61.2625 5.49393 60.8501 5.3245 60.4201 5.3245C59.9902 5.3245 59.5778 5.49393 59.2731 5.79572C58.9725 6.1254 58.8059 6.55459 58.8059 6.99972C58.8059 7.44484 58.9725 7.87403 59.2731 8.20372ZM64.8042 9.09972V4.89972H66.3313C66.6483 4.89376 66.9556 5.00901 67.1898 5.22172C67.3074 5.32323 67.4011 5.4492 67.4643 5.59073C67.5275 5.73225 67.5587 5.88587 67.5557 6.04072C67.559 6.22731 67.505 6.41046 67.4009 6.56572C67.2976 6.71652 67.1537 6.83538 66.9857 6.90872C67.1898 6.97593 67.3688 7.10278 67.4994 7.27272C67.6347 7.44422 67.7067 7.65672 67.7035 7.87472C67.7071 8.03609 67.6749 8.19627 67.6092 8.34387C67.5435 8.49147 67.446 8.62286 67.3235 8.72872C67.0784 8.95355 66.7561 9.07631 66.4227 9.07172L64.8042 9.09972ZM65.3461 6.69872H66.3313C66.4233 6.70254 66.515 6.68635 66.6001 6.65129C66.6851 6.61623 66.7615 6.56314 66.8238 6.49572C66.8861 6.43952 66.9364 6.37141 66.9717 6.29547C67.007 6.21952 67.0265 6.13728 67.0291 6.05366C67.0318 5.97004 67.0174 5.88675 66.987 5.80876C66.9566 5.73077 66.9106 5.65967 66.852 5.59972C66.7932 5.53355 66.7205 5.48106 66.639 5.44598C66.5575 5.4109 66.4693 5.39408 66.3805 5.39672H65.3742L65.3461 6.69872ZM65.3461 8.58172H66.4368C66.5321 8.5849 66.627 8.56709 66.7145 8.52958C66.8021 8.49207 66.8803 8.43577 66.9435 8.36472C67.0675 8.2367 67.138 8.06652 67.1405 7.88872C67.1405 7.70307 67.0664 7.52502 66.9344 7.39374C66.8024 7.26247 66.6234 7.18872 66.4368 7.18872H65.3672L65.3461 8.58172Z" fill="white"/>
<path fill-rule="evenodd" clip-rule="evenodd" d="M36.0368 4.86754C35.7583 4.86754 35.4825 4.92237 35.2254 5.02886C34.9685 5.13524 34.7353 5.29108 34.5392 5.48742C34.1521 5.89538 33.9364 6.43518 33.9364 6.99622C33.9364 7.55718 34.152 8.0969 34.5391 8.50485C34.9372 8.89827 35.4756 9.11909 36.0368 9.11909C36.598 9.11909 37.1365 8.89824 37.5346 8.50479C37.9232 8.09765 38.1399 7.55765 38.1399 6.99622C38.1399 6.43471 37.9232 5.89465 37.5345 5.48749C37.3384 5.29112 37.1051 5.13525 36.8482 5.02886C36.5911 4.92237 36.3153 4.86754 36.0368 4.86754ZM35.1713 4.89961C35.4455 4.78602 35.7397 4.72754 36.0368 4.72754C36.3339 4.72754 36.6281 4.78602 36.9023 4.89961C37.1766 5.01321 37.4256 5.17967 37.6349 5.3894L37.636 5.39049C38.0499 5.82373 38.2806 6.39856 38.2806 6.99622C38.2806 7.59387 38.0498 8.1687 37.636 8.60194L37.6346 8.60337C37.21 9.02336 36.6356 9.25909 36.0368 9.25909C35.438 9.25909 34.8636 9.02334 34.439 8.60335L34.4375 8.60181C34.0253 8.16778 33.7957 7.5933 33.7957 6.99622C33.7957 6.39913 34.0253 5.82467 34.4375 5.39065L34.4387 5.38938C34.648 5.17965 34.897 5.01321 35.1713 4.89961ZM60.4201 4.86754C60.1416 4.86754 59.8658 4.92237 59.6087 5.02886C59.3519 5.13523 59.1187 5.29106 58.9226 5.48738C58.5354 5.89535 58.3197 6.43516 58.3197 6.99622C58.3197 7.55718 58.5354 8.09691 58.9224 8.50486C59.3205 8.89827 59.8589 9.11909 60.4201 9.11909C60.9814 9.11909 61.5199 8.89823 61.918 8.50474C62.3066 8.09761 62.5232 7.55763 62.5232 6.99622C62.5232 6.43472 62.3065 5.89466 61.9178 5.48751C61.7217 5.29113 61.4885 5.13526 61.2316 5.02886C60.9744 4.92237 60.6987 4.86754 60.4201 4.86754ZM59.5546 4.89961C59.8289 4.78602 60.123 4.72754 60.4201 4.72754C60.7172 4.72754 61.0114 4.78602 61.2857 4.89961C61.5599 5.01321 61.8089 5.17967 62.0182 5.3894L62.0193 5.39049C62.4332 5.82374 62.664 6.39856 62.664 6.99622C62.664 7.59387 62.4332 8.1687 62.0193 8.60194L62.0179 8.60337C61.5934 9.02336 61.0189 9.25909 60.4201 9.25909C59.8214 9.25909 59.247 9.02334 58.8224 8.60335L58.8208 8.60181C58.4086 8.16778 58.179 7.5933 58.179 6.99622C58.179 6.39913 58.4086 5.82467 58.8208 5.39065L58.822 5.38938C59.0314 5.17965 59.2803 5.01321 59.5546 4.89961ZM41.7674 5.04565C41.5089 4.92878 41.2272 4.8717 40.9434 4.8787L40.9402 4.87877C40.6592 4.87322 40.38 4.92422 40.1193 5.02885C39.8587 5.13348 39.622 5.2895 39.4236 5.48751C39.2252 5.68553 39.0691 5.92144 38.9647 6.18105C38.8604 6.44066 38.8099 6.71859 38.8164 6.9981L38.8165 7.00133C38.81 7.28085 38.8604 7.55877 38.9647 7.81838C39.0691 8.07799 39.2252 8.3139 39.4236 8.51192C39.622 8.70993 39.8587 8.86595 40.1193 8.97058C40.38 9.07521 40.6592 9.12629 40.9402 9.12073L40.9416 9.19072L40.943 9.12073C41.262 9.12682 41.5783 9.06208 41.869 8.93122C42.1122 8.81621 42.3291 8.65327 42.5067 8.45253L42.227 8.17428C42.0744 8.34743 41.8885 8.48873 41.6799 8.58965C41.4479 8.70187 41.1937 8.76133 40.9358 8.76371C40.7105 8.76945 40.4863 8.72971 40.2769 8.64687C40.0673 8.56396 39.8767 8.43961 39.7168 8.28134L39.7145 8.27903C39.3975 7.93446 39.2217 7.48428 39.2217 7.01722C39.2217 6.55016 39.3975 6.10002 39.7145 5.75546L39.7168 5.75304C39.8767 5.59477 40.0673 5.47047 40.2769 5.38756C40.4857 5.30498 40.7091 5.26522 40.9338 5.27067C41.1684 5.25954 41.4024 5.30423 41.6163 5.40104C41.8074 5.48755 41.9775 5.61345 42.1155 5.77007L42.3931 5.50418C42.2191 5.30981 42.006 5.15354 41.7674 5.04565ZM40.9417 9.26073C40.6421 9.26647 40.3445 9.21194 40.0667 9.10041C39.7884 8.98871 39.5358 8.82215 39.3239 8.61075C39.1121 8.39936 38.9455 8.14751 38.8341 7.87036C38.7229 7.59371 38.669 7.29757 38.6757 6.99972C38.669 6.70186 38.7229 6.40572 38.8341 6.12907C38.9455 5.85193 39.1121 5.60007 39.3239 5.38868C39.5358 5.17728 39.7884 5.01072 40.0667 4.89902C40.3444 4.78752 40.642 4.73299 40.9415 4.7387C41.246 4.73143 41.5483 4.79279 41.8256 4.9182C42.1034 5.04381 42.349 5.23042 42.5439 5.46401L42.5857 5.51404L42.1026 5.97677L42.0545 5.91603C41.9224 5.74928 41.7522 5.61639 41.558 5.52847C41.3638 5.44054 41.1512 5.40014 40.9381 5.41063L40.9328 5.41089C40.7263 5.40555 40.5208 5.44174 40.3289 5.51765C40.1375 5.59336 39.9634 5.70682 39.8172 5.85118C39.5247 6.16978 39.3625 6.58569 39.3625 7.01722C39.3625 7.44874 39.5247 7.86465 39.8172 8.18325C39.9634 8.32761 40.1375 8.44107 40.3289 8.51678C40.5208 8.59269 40.7263 8.62908 40.9328 8.62374L40.934 8.62372C41.1712 8.62161 41.405 8.56697 41.6183 8.46375C41.8317 8.36053 42.0193 8.21134 42.1674 8.02701L42.2165 7.9659L42.6973 8.44418L42.6567 8.49324C42.4586 8.73224 42.2101 8.92502 41.9289 9.05794L41.9277 9.05849C41.6182 9.19793 41.2813 9.26701 40.9417 9.26073ZM67.1423 5.27341C66.9215 5.07279 66.6316 4.96409 66.3326 4.9697L66.3313 4.96972H64.8746V9.02849L66.4215 9.00173L66.4237 9.00172C66.739 9.00607 67.044 8.88994 67.2758 8.67726L67.2773 8.67585C67.392 8.57673 67.4834 8.45373 67.5449 8.31553C67.6063 8.17734 67.6365 8.02736 67.6331 7.87627L67.6331 7.87367C67.6362 7.67171 67.5694 7.47483 67.444 7.31593L67.4435 7.31522C67.3215 7.15647 67.1543 7.03796 66.9636 6.97517L66.7896 6.91788L66.9574 6.84462C67.1132 6.77661 67.2466 6.66642 67.3425 6.52663C67.4386 6.38328 67.4884 6.2142 67.4853 6.04195V6.03934C67.4882 5.89475 67.4591 5.75131 67.4 5.61916C67.341 5.487 67.2534 5.36937 67.1437 5.27458L67.1423 5.27341ZM67.2366 5.16946C66.9894 4.94518 66.6652 4.8236 66.3306 4.82972H64.7338V9.17094L66.4218 9.14171L66.4229 9.14172C66.7735 9.14628 67.1125 9.01716 67.3704 8.78087C67.5003 8.66839 67.6038 8.52888 67.6735 8.3722C67.7432 8.2156 67.7775 8.04569 67.7739 7.87448L67.7738 7.87576L67.7035 7.87472L67.7738 7.87317L67.7739 7.87448C67.7771 7.64106 67.6998 7.41355 67.555 7.22984C67.4474 7.08988 67.3089 6.97738 67.1511 6.90046C67.2726 6.8244 67.3776 6.72403 67.459 6.60514L67.4594 6.60456C67.5712 6.43781 67.6294 6.24116 67.6261 6.04077L67.6261 6.04209L67.5557 6.04072L67.6261 6.03948L67.6261 6.04077C67.6291 5.87612 67.5959 5.71279 67.5286 5.5623C67.4613 5.41168 67.3616 5.27758 67.2366 5.16946ZM30.0201 4.82972H32.9757V8.51172H33.4472V10.0517H32.7857V9.16972H29.7035V10.0587H29.042V8.51872H29.525C29.7099 8.31764 29.8501 8.07983 29.9361 7.82086C30.0253 7.5524 30.0541 7.26773 30.0206 6.98697L30.0201 6.98286V4.82972ZM30.1609 4.96972V6.97461C30.196 7.27438 30.1649 7.57819 30.0697 7.86478C29.9741 8.1527 29.8161 8.41622 29.6069 8.63676L29.586 8.65872H29.1827V9.91872H29.5627V9.02972H32.9264V9.91172H33.3064V8.65172H32.835V4.96972H30.1609ZM43.0176 4.82972H46.0575V5.48772H44.8824V9.16972H44.1998V5.48772H43.0176V4.82972ZM43.1583 4.96972V5.34772H44.3405V9.02972H44.7416V5.34772H45.9168V4.96972H43.1583ZM49.0296 4.82972H49.8255L48.1854 8.46637C48.1168 8.68799 47.9811 8.8832 47.7968 9.02533C47.6114 9.16839 47.3858 9.25062 47.1513 9.26065L47.1474 9.26082C46.9925 9.25886 46.8396 9.2258 46.6978 9.1638L46.6417 9.13932L46.8237 8.49675L46.9022 8.54223C46.9772 8.58565 47.0622 8.60891 47.149 8.60972L47.1536 8.60976C47.2406 8.61628 47.3275 8.59642 47.4027 8.55261C47.4764 8.48936 47.5332 8.40898 47.5682 8.31859L47.5697 8.31449L47.7114 8.0075L46.2723 4.83672H47.068L48.0621 7.13533L49.0296 4.82972ZM49.1233 4.96972L48.0641 7.49411L46.9753 4.97672H46.4902L47.866 8.00794L47.6987 8.37095C47.6545 8.48419 47.5825 8.58464 47.4893 8.66314L47.485 8.66676L47.4802 8.66966C47.3795 8.73005 47.2626 8.75799 47.1453 8.74969C47.0649 8.74865 46.9857 8.73255 46.9117 8.70251L46.8109 9.05834C46.9185 9.09789 47.0322 9.11902 47.1472 9.12069C47.3519 9.11153 47.5487 9.03958 47.7106 8.9147C47.873 8.78941 47.9924 8.61703 48.0521 8.42138L48.0534 8.41712L49.6081 4.96972H49.1233ZM50.2587 4.82972H53.4535V9.16972H52.7709V5.48772H50.9413V9.16972H50.2587V4.82972ZM50.3994 4.96972V9.02972H50.8005V5.34772H52.9116V9.02972H53.3127V4.96972H50.3994ZM54.2768 4.82972H54.9594V6.62872H56.9298V4.82972H57.6124V9.16972H56.9298V7.27272H54.9594V9.16972H54.2768V4.82972ZM54.4176 4.96972V9.02972H54.8187V7.13272H57.0705V9.02972H57.4716V4.96972H57.0705V6.76872H54.8187V4.96972H54.4176ZM34.8401 5.74612C35.158 5.43127 35.5882 5.2545 36.0368 5.2545C36.4854 5.2545 36.9157 5.43127 37.2335 5.74612L37.236 5.74863C37.5484 6.09119 37.7214 6.53721 37.7214 6.99972C37.7214 7.46223 37.5484 7.90818 37.236 8.25075L37.2336 8.25338C36.9157 8.56823 36.4854 8.74494 36.0368 8.74494C35.5882 8.74494 35.158 8.56817 34.8401 8.25332L34.8898 8.20372L34.8377 8.25075C34.5253 7.90818 34.3522 7.46223 34.3522 6.99972C34.3522 6.53721 34.5253 6.09125 34.8377 5.74869L34.8401 5.74612ZM34.9407 8.15537C35.232 8.44331 35.6261 8.60494 36.0368 8.60494C36.4475 8.60494 36.8416 8.4433 37.1329 8.15537C37.4211 7.83873 37.5807 7.42686 37.5807 6.99972C37.5807 6.57257 37.4211 6.1607 37.1329 5.84407C36.8416 5.55613 36.4475 5.3945 36.0368 5.3945C35.6261 5.3945 35.232 5.55613 34.9407 5.84407C34.6525 6.1607 34.493 6.57257 34.493 6.99972C34.493 7.42686 34.6525 7.83873 34.9407 8.15537ZM59.2235 5.74612C59.5413 5.43127 59.9716 5.2545 60.4201 5.2545C60.8687 5.2545 61.299 5.43127 61.6168 5.74612L61.6194 5.74863C61.9318 6.09119 62.1047 6.53721 62.1047 6.99972C62.1047 7.46223 61.9317 7.90818 61.6193 8.25075L61.6169 8.25338C61.2991 8.56823 60.8687 8.74494 60.4201 8.74494C59.9716 8.74494 59.5413 8.56817 59.2235 8.25332L59.2731 8.20372L59.221 8.25075C58.9086 7.90818 58.7355 7.46223 58.7355 6.99972C58.7355 6.53721 58.9086 6.09125 59.221 5.74869L59.2235 5.74612ZM59.324 8.15537C59.6154 8.44331 60.0094 8.60494 60.4201 8.60494C60.8309 8.60494 61.2249 8.44331 61.5163 8.15537C61.8044 7.83874 61.964 7.42686 61.964 6.99972C61.964 6.57257 61.8044 6.16069 61.5163 5.84406C61.2249 5.55612 60.8309 5.3945 60.4201 5.3945C60.0094 5.3945 59.6154 5.55612 59.324 5.84406C59.0359 6.16069 58.8763 6.57257 58.8763 6.99972C58.8763 7.42686 59.0359 7.83874 59.324 8.15537ZM66.3795 5.32672C66.4782 5.32394 66.5763 5.34272 66.6669 5.38174C66.7574 5.42068 66.8382 5.47885 66.9036 5.55213C66.9683 5.61857 67.0189 5.69721 67.0526 5.78343C67.0864 5.87018 67.1024 5.96283 67.0995 6.05585C67.0965 6.14886 67.0748 6.24034 67.0356 6.32482C66.9968 6.40834 66.9417 6.48334 66.8735 6.54544C66.8046 6.61924 66.7205 6.67741 66.627 6.71596C66.5329 6.75473 66.4316 6.77272 66.3298 6.76872H65.2742L65.3053 5.32672H66.3795ZM66.611 5.51022C66.539 5.47922 66.461 5.46435 66.3826 5.46668L66.3805 5.46672H65.4431L65.418 6.62872H66.3342C66.416 6.63211 66.4975 6.61779 66.5731 6.58662C66.6488 6.55546 66.7166 6.50827 66.772 6.44833L66.7742 6.446L66.7766 6.44386C66.8319 6.39398 66.8765 6.33352 66.9078 6.26611C66.9391 6.1987 66.9565 6.1257 66.9588 6.05147C66.9611 5.97725 66.9484 5.90332 66.9214 5.83409C66.8944 5.76486 66.8536 5.70175 66.8016 5.64853L66.7992 5.64613C66.7472 5.58766 66.683 5.54122 66.611 5.51022ZM30.5409 5.34772H32.3916V8.67972H30.0854L30.1499 8.57351C30.4367 8.10156 30.573 7.55429 30.541 7.00376L30.5408 6.99972L30.5409 5.34772ZM30.6816 5.48772V6.99771C30.7125 7.53494 30.5908 8.06914 30.3318 8.53972H32.2509V5.48772H30.6816ZM65.2979 7.11872H66.4368C66.6421 7.11872 66.839 7.19984 66.9842 7.34424C67.1293 7.48865 67.2109 7.6845 67.2109 7.88872L67.2109 7.8897C67.2081 8.0848 67.131 8.27157 66.9951 8.41226C66.9253 8.49049 66.839 8.55249 66.7424 8.59388C66.6456 8.63531 66.5409 8.65505 66.4357 8.65172H65.2746L65.2979 7.11872ZM65.4365 7.25872L65.4175 8.51172H66.4392C66.5241 8.51455 66.6086 8.49872 66.6867 8.46529C66.7648 8.43185 66.8345 8.38168 66.8908 8.31834L66.8928 8.31609C67.0043 8.20099 67.0678 8.04806 67.0701 7.88821C67.07 7.72131 67.0033 7.56127 66.8846 7.44324C66.7659 7.32509 66.6048 7.25872 66.4368 7.25872H65.4365Z" fill="white"/>
<path d="M7.42076 22.889L16.0415 13.9947L7.42798 5.11621C7.19791 5.25444 7.05554 5.57449 7.05554 5.99343V22.0203C7.05863 22.4393 7.19585 22.7359 7.42076 22.889Z" fill="white"/>
<path d="M16.3503 13.7489L18.9182 11.0992L8.46103 5.18311C8.28495 5.07755 8.08493 5.02179 7.88123 5.02148L16.3493 13.7479L16.3503 13.7489Z" fill="white"/>
<path d="M16.3504 14.2412L7.85547 23.0059C8.06868 23.0095 8.2787 22.9521 8.4621 22.84L18.9399 16.9079L16.3504 14.2412Z" fill="white"/>
<path d="M22.7065 13.2458L19.2266 11.2734L16.5886 13.9954L19.2462 16.7345L22.7055 14.7674C23.4411 14.3495 23.4411 13.6616 22.7065 13.2458Z" fill="white"/>
</svg>
