<svg width="50" height="51" viewBox="0 0 50 51" fill="none" xmlns="http://www.w3.org/2000/svg">
<rect x="2.896" y="7.43652" width="44.2081" height="36.2698" fill="white"/>
<path d="M46.2165 0.571289H3.78348C1.69643 0.571289 0 2.26772 0 4.35477V46.7766C0 48.8749 1.69643 50.5713 3.78348 50.5713H46.2054C48.2924 50.5713 49.9888 48.8749 49.9888 46.7878V4.35477C50 2.26772 48.3036 0.571289 46.2165 0.571289ZM26.5179 40.6494C18.192 41.4865 10.7589 35.415 9.92188 27.0891H20.4576V29.3659C20.4576 29.7789 20.7924 30.1249 21.2165 30.1249H28.7946C29.2076 30.1249 29.5536 29.79 29.5536 29.3659V21.7878C29.5536 21.3749 29.2187 21.0289 28.7946 21.0289H21.2165C20.8036 21.0289 20.4576 21.3637 20.4576 21.7878V24.0646H9.92188C10.7031 16.3191 17.221 10.4262 25 10.4262C32.779 10.4262 39.2969 16.3191 40.0781 24.0646C40.9152 32.3793 34.8438 39.8124 26.5179 40.6494V40.6494Z" fill="black"/>
</svg>
