<svg width="95" height="28" viewBox="0 0 95 28" fill="none" xmlns="http://www.w3.org/2000/svg">
<path d="M91.4815 0H3.51852C1.57529 0 0 1.567 0 3.5V24.5C0 26.433 1.57529 28 3.51852 28H91.4815C93.4247 28 95 26.433 95 24.5V3.5C95 1.567 93.4247 0 91.4815 0Z" fill="#222222"/>
<path d="M91.4815 0.56C92.2653 0.56 93.0171 0.869749 93.5714 1.42111C94.1256 1.97246 94.437 2.72026 94.437 3.5V24.5C94.437 25.2797 94.1256 26.0275 93.5714 26.5789C93.0171 27.1303 92.2653 27.44 91.4815 27.44H3.51852C2.73466 27.44 1.9829 27.1303 1.42862 26.5789C0.874351 26.0275 0.562963 25.2797 0.562963 24.5V3.5C0.562963 2.72026 0.874351 1.97246 1.42862 1.42111C1.9829 0.869749 2.73466 0.56 3.51852 0.56H91.4815ZM91.4815 0H3.51852C2.58535 0 1.6904 0.368749 1.03055 1.02513C0.3707 1.6815 0 2.57174 0 3.5V24.5C0 25.4283 0.3707 26.3185 1.03055 26.9749C1.6904 27.6313 2.58535 28 3.51852 28H91.4815C92.4146 28 93.3096 27.6313 93.9695 26.9749C94.6293 26.3185 95 25.4283 95 24.5V3.5C95 2.57174 94.6293 1.6815 93.9695 1.02513C93.3096 0.368749 92.4146 0 91.4815 0Z" fill="#222222"/>
<path d="M34.4059 11.6167H33.8349V10.2375H30.571V11.6167H30V9.64995H30.3666C30.6867 9.04811 30.9636 8.31849 31.1972 7.46111C31.4308 6.60372 31.5681 5.78335 31.6092 5H33.8025V9.64995H34.4059V11.6167ZM33.2087 9.64995V5.59468H32.1348C32.0937 6.18936 31.9618 6.88315 31.739 7.67605C31.5184 8.46895 31.2707 9.12692 30.996 9.64995H33.2087Z" fill="white"/>
<path d="M38.2149 8.26356C38.2149 8.906 38.0678 9.40754 37.7736 9.76817C37.4795 10.1288 37.0728 10.3091 36.5537 10.3091C36.2314 10.3091 35.9459 10.2267 35.6972 10.0619C35.4484 9.89475 35.257 9.65592 35.1229 9.34545C34.9888 9.03497 34.9218 8.67434 34.9218 8.26356C34.9218 7.62351 35.0667 7.12555 35.3565 6.7697C35.6464 6.41146 36.053 6.23234 36.5764 6.23234C37.0782 6.23234 37.4762 6.41505 37.7704 6.78045C38.0667 7.14347 38.2149 7.63784 38.2149 8.26356ZM35.5252 8.26356C35.5252 8.75793 35.6128 9.13408 35.788 9.39202C35.9654 9.64756 36.226 9.77533 36.5699 9.77533C36.9095 9.77533 37.168 9.64756 37.3453 9.39202C37.5227 9.13408 37.6114 8.75793 37.6114 8.26356C37.6114 7.76919 37.5216 7.39782 37.3421 7.14944C37.1647 6.89867 36.9041 6.77329 36.5602 6.77329C35.8702 6.77329 35.5252 7.27004 35.5252 8.26356Z" fill="white"/>
<path d="M40.5703 10.3091C40.0577 10.3091 39.6586 10.136 39.3731 9.78966C39.0876 9.44098 38.9448 8.94183 38.9448 8.29222C38.9448 7.63306 39.0887 7.12555 39.3764 6.7697C39.6662 6.41146 40.0782 6.23234 40.6125 6.23234C40.7855 6.23234 40.9564 6.25264 41.1251 6.29324C41.296 6.33146 41.4366 6.38161 41.5469 6.44371L41.3684 6.98106C41.0678 6.85687 40.8115 6.79478 40.5995 6.79478C40.2404 6.79478 39.9755 6.92016 39.8046 7.17093C39.6337 7.41931 39.5483 7.79069 39.5483 8.28506C39.5483 8.76032 39.6337 9.12453 39.8046 9.37769C39.9755 9.62845 40.2286 9.75384 40.5638 9.75384C40.8774 9.75384 41.1857 9.67741 41.4885 9.52456V10.0977C41.2419 10.2387 40.9358 10.3091 40.5703 10.3091Z" fill="white"/>
<path d="M44.7945 6.84852H43.6298V10.2375H43.0523V6.84852H41.9037V6.30399H44.7945V6.84852Z" fill="white"/>
<path d="M44.9438 6.30399H45.5699L46.3389 8.54299C46.5011 9.03019 46.6006 9.38724 46.6373 9.61412H46.6633C46.6828 9.52576 46.7271 9.36097 46.7963 9.11975C46.8655 8.87615 46.9239 8.68151 46.9715 8.53582L47.695 6.30399H48.3244L46.7898 10.782C46.6406 11.2166 46.4632 11.5283 46.2577 11.717C46.0523 11.9057 45.7981 12 45.4953 12C45.3331 12 45.172 11.9797 45.0119 11.9391V11.4268C45.12 11.4555 45.2498 11.4698 45.4012 11.4698C45.5872 11.4698 45.7451 11.4125 45.8749 11.2979C46.0047 11.1856 46.1107 11.0113 46.1929 10.7748L46.3778 10.2518L44.9438 6.30399Z" fill="white"/>
<path d="M49.473 10.2375H48.889V6.30399H51.8998V10.2375H51.3158V6.85568H49.473V10.2375Z" fill="white"/>
<path d="M53.6193 6.30399V7.94115H55.553V6.30399H56.137V10.2375H55.553V8.48567H53.6193V10.2375H53.0353V6.30399H53.6193Z" fill="white"/>
<path d="M60.3677 8.26356C60.3677 8.906 60.2206 9.40754 59.9265 9.76817C59.6323 10.1288 59.2257 10.3091 58.7066 10.3091C58.3843 10.3091 58.0988 10.2267 57.85 10.0619C57.6013 9.89475 57.4099 9.65592 57.2758 9.34545C57.1417 9.03497 57.0746 8.67434 57.0746 8.26356C57.0746 7.62351 57.2195 7.12555 57.5094 6.7697C57.7992 6.41146 58.2058 6.23234 58.7293 6.23234C59.2311 6.23234 59.6291 6.41505 59.9232 6.78045C60.2195 7.14347 60.3677 7.63784 60.3677 8.26356ZM57.6781 8.26356C57.6781 8.75793 57.7657 9.13408 57.9409 9.39202C58.1182 9.64756 58.3789 9.77533 58.7228 9.77533C59.0624 9.77533 59.3208 9.64756 59.4982 9.39202C59.6756 9.13408 59.7642 8.75793 59.7642 8.26356C59.7642 7.76919 59.6745 7.39782 59.495 7.14944C59.3176 6.89867 59.057 6.77329 58.713 6.77329C58.0231 6.77329 57.6781 7.27004 57.6781 8.26356Z" fill="white"/>
<path d="M65.8864 7.29632C65.8864 7.54947 65.8216 7.74292 65.6918 7.87666C65.562 8.00802 65.3771 8.09758 65.137 8.14534V8.17758C65.4376 8.22296 65.6561 8.32207 65.7924 8.47492C65.9308 8.62538 66 8.82839 66 9.08393C66 9.4565 65.8756 9.7419 65.6269 9.94012C65.3803 10.1383 65.0245 10.2375 64.5595 10.2375H62.9567V6.30399H64.553C65.442 6.30399 65.8864 6.63477 65.8864 7.29632ZM65.416 9.04811C65.416 8.82839 65.3381 8.67434 65.1824 8.58598C65.0267 8.49761 64.7985 8.45343 64.4978 8.45343H63.5407V9.71801H64.5108C65.1143 9.71801 65.416 9.49471 65.416 9.04811ZM65.3154 7.35363C65.3154 7.16974 65.2505 7.03838 65.1208 6.95957C64.9932 6.88076 64.7996 6.84135 64.54 6.84135H63.5407V7.91965H64.4329C64.7509 7.91965 64.9769 7.87666 65.111 7.79069C65.2473 7.70232 65.3154 7.55664 65.3154 7.35363Z" fill="white"/>
<path d="M13.763 4.45366C14.268 3.83444 14.9821 3.43426 15.7265 3.36622C15.9081 3.3569 16.0905 3.35845 16.272 3.36684C17.0101 3.43147 17.7173 3.8273 18.221 4.4372C18.7318 5.0443 19.0304 5.86952 19.045 6.70592C19.0486 7.10268 19.0456 7.49944 19.0464 7.89621C19.2577 7.89621 19.4687 7.89621 19.6798 7.89621C19.6781 7.47956 19.6833 7.06291 19.677 6.64658C19.6555 5.95962 19.4379 5.28882 19.0792 4.73547C19.6955 5.24719 20.1272 6.03015 20.2616 6.87991C20.3195 7.21453 20.3123 7.55692 20.3115 7.89621C21.54 7.89652 22.7685 7.89621 23.9972 7.89621C23.998 11.8259 23.9983 15.7553 23.9975 19.685C23.9969 19.924 24.0187 20.1719 23.9435 20.4012C23.8002 20.8915 23.3759 21.2715 22.9136 21.2799C18.3036 21.2783 13.6936 21.2792 9.08384 21.2792C8.51575 21.2705 8.01047 20.6957 8 20.0566C8.00055 16.0033 7.99972 11.9496 8.00028 7.89621C9.65083 7.89621 11.3011 7.89621 12.9514 7.89621C12.9522 7.50007 12.9495 7.10392 12.9528 6.70809C12.9663 5.87853 13.2602 5.05953 13.763 4.45366ZM15.6084 4.09885C15.0615 4.19765 14.549 4.5186 14.1843 4.98869C13.8052 5.47213 13.5872 6.11186 13.5837 6.75718C13.5823 7.13686 13.5834 7.51653 13.5831 7.89621C13.7941 7.89621 14.0055 7.89621 14.2165 7.89621C14.217 7.69332 14.2135 7.49043 14.2226 7.28755C14.244 6.87774 14.3319 6.47258 14.4802 6.09757C14.7637 5.32921 15.4235 4.78363 16.1365 4.61492C16.6142 4.50275 17.1275 4.55247 17.571 4.78767C17.4234 4.77803 17.276 4.76063 17.128 4.77306C16.5525 4.80724 15.9913 5.08469 15.5794 5.54018C15.1397 6.01865 14.8728 6.69225 14.8504 7.38107C14.846 7.55257 14.8491 7.72439 14.8482 7.89621C16.037 7.89621 17.2258 7.89621 18.4149 7.89621C18.4149 7.54729 18.4149 7.19838 18.4149 6.84977C18.4155 6.4179 18.3259 5.98603 18.1537 5.60045C17.9028 5.03281 17.4741 4.56831 16.9611 4.30857C16.5407 4.09543 16.0646 4.01061 15.6084 4.09885ZM12.6412 10.8043C12.6414 11.9698 12.6406 13.1349 12.6417 14.3003C13.6746 14.2994 14.7077 14.3 15.7409 14.2997C15.7409 13.1349 15.7403 11.9698 15.7411 10.8047C14.7077 10.8037 13.6746 10.8047 12.6412 10.8043ZM16.2566 10.805C16.2583 11.9698 16.2572 13.1349 16.2572 14.2997C17.29 14.3003 18.3232 14.2991 19.356 14.3006C19.3577 13.1349 19.3566 11.9695 19.3566 10.804C18.3232 10.805 17.29 10.8031 16.2566 10.805ZM12.6417 14.882C12.6409 16.0471 12.6417 17.2125 12.6412 18.3776C13.6746 18.3773 14.708 18.3789 15.7411 18.377C15.7403 17.2122 15.7411 16.0471 15.7409 14.8823C14.7077 14.882 13.6746 14.8826 12.6417 14.882ZM16.2572 14.8823C16.2572 16.0474 16.2577 17.2122 16.2569 18.3773C17.2903 18.3786 18.3235 18.3776 19.3569 18.3776C19.3566 17.2125 19.3577 16.0471 19.3563 14.882C18.3235 14.8829 17.2903 14.882 16.2572 14.8823Z" fill="white"/>
<path d="M30 14.5344H31.712L33.3111 19.014H33.3371L34.9188 14.5344H36.6395V20.8397H35.5532V15.7723H35.5358L33.6674 20.8397H32.9026L31.0602 15.7723H31.0429V20.8397H30V14.5344Z" fill="white"/>
<path d="M37.9598 16.5649H39.0026V20.8397H37.9598V16.5649ZM37.812 15.1132C37.812 14.9411 37.8728 14.7926 37.9945 14.6679C38.122 14.5373 38.2813 14.472 38.4725 14.472C38.6637 14.472 38.823 14.5344 38.9505 14.659C39.0837 14.7778 39.1503 14.9292 39.1503 15.1132C39.1503 15.2973 39.0837 15.4517 38.9505 15.5763C38.823 15.6951 38.6637 15.7545 38.4725 15.7545C38.2813 15.7545 38.122 15.6921 37.9945 15.5674C37.8728 15.4368 37.812 15.2854 37.812 15.1132Z" fill="white"/>
<path d="M43.1182 17.7494C43.0371 17.6306 42.9154 17.5327 42.7532 17.4555C42.591 17.3723 42.4259 17.3308 42.2578 17.3308C42.0667 17.3308 41.8986 17.3723 41.7538 17.4555C41.609 17.5327 41.4873 17.6366 41.3888 17.7672C41.2961 17.8978 41.2266 18.0462 41.1802 18.2125C41.1339 18.3728 41.1107 18.536 41.1107 18.7023C41.1107 18.8685 41.1339 19.0348 41.1802 19.201C41.2324 19.3613 41.3077 19.5068 41.4062 19.6374C41.5047 19.768 41.6263 19.8749 41.7712 19.958C41.9218 20.0352 42.0956 20.0738 42.2926 20.0738C42.4548 20.0738 42.6171 20.0411 42.7793 19.9758C42.9415 19.9105 43.0719 19.8155 43.1703 19.6908L43.8221 20.3677C43.6483 20.5577 43.4253 20.7061 43.153 20.813C42.8865 20.9139 42.5968 20.9644 42.2839 20.9644C41.9769 20.9644 41.6843 20.9139 41.4062 20.813C41.1339 20.712 40.8935 20.5636 40.6849 20.3677C40.4821 20.1718 40.3199 19.9343 40.1982 19.6552C40.0823 19.3762 40.0244 19.0585 40.0244 18.7023C40.0244 18.3579 40.0823 18.0462 40.1982 17.7672C40.3199 17.4881 40.4821 17.2506 40.6849 17.0547C40.8877 16.8588 41.1223 16.7074 41.3888 16.6005C41.6611 16.4936 41.9508 16.4402 42.2578 16.4402C42.5649 16.4402 42.8604 16.4996 43.1443 16.6183C43.434 16.7371 43.6628 16.9003 43.8308 17.1081L43.1182 17.7494Z" fill="white"/>
<path d="M44.5111 16.5649H45.5105V17.2774H45.5279C45.6438 17.028 45.806 16.8261 46.0146 16.6718C46.2231 16.5174 46.4665 16.4402 46.7446 16.4402C46.7851 16.4402 46.8286 16.4432 46.8749 16.4491C46.9213 16.4491 46.9618 16.455 46.9966 16.4669V17.4466C46.9271 17.4288 46.8662 17.4169 46.8141 17.4109C46.7677 17.405 46.7214 17.402 46.675 17.402C46.4375 17.402 46.2463 17.4466 46.1015 17.5356C45.9566 17.6247 45.8436 17.7316 45.7625 17.8562C45.6814 17.9809 45.6264 18.1086 45.5974 18.2392C45.5684 18.3698 45.554 18.4737 45.554 18.5509V20.8397H44.5111V16.5649Z" fill="white"/>
<path d="M47.2806 18.6845C47.2806 18.3461 47.3385 18.0403 47.4544 17.7672C47.576 17.4881 47.7383 17.2506 47.941 17.0547C48.1438 16.8588 48.3843 16.7074 48.6624 16.6005C48.9404 16.4936 49.2359 16.4402 49.5488 16.4402C49.8616 16.4402 50.1571 16.4936 50.4352 16.6005C50.7133 16.7074 50.9537 16.8588 51.1565 17.0547C51.3593 17.2506 51.5186 17.4881 51.6345 17.7672C51.7561 18.0403 51.817 18.3461 51.817 18.6845C51.817 19.0229 51.7561 19.3316 51.6345 19.6107C51.5186 19.8897 51.3593 20.1302 51.1565 20.3321C50.9537 20.528 50.7133 20.6824 50.4352 20.7952C50.1571 20.908 49.8616 20.9644 49.5488 20.9644C49.2359 20.9644 48.9404 20.908 48.6624 20.7952C48.3843 20.6824 48.1438 20.528 47.941 20.3321C47.7383 20.1302 47.576 19.8897 47.4544 19.6107C47.3385 19.3316 47.2806 19.0229 47.2806 18.6845ZM48.3408 18.6845C48.3408 18.8507 48.364 19.017 48.4103 19.1832C48.4625 19.3494 48.5378 19.4979 48.6363 19.6285C48.7348 19.7591 48.8593 19.866 49.01 19.9491C49.1606 20.0322 49.3402 20.0738 49.5488 20.0738C49.7573 20.0738 49.9369 20.0322 50.0876 19.9491C50.2382 19.866 50.3628 19.7591 50.4613 19.6285C50.5598 19.4979 50.6322 19.3494 50.6785 19.1832C50.7307 19.017 50.7567 18.8507 50.7567 18.6845C50.7567 18.5182 50.7307 18.355 50.6785 18.1947C50.6322 18.0284 50.5598 17.88 50.4613 17.7494C50.3628 17.6187 50.2382 17.5148 50.0876 17.4377C49.9369 17.3545 49.7573 17.313 49.5488 17.313C49.3402 17.313 49.1606 17.3545 49.01 17.4377C48.8593 17.5148 48.7348 17.6187 48.6363 17.7494C48.5378 17.88 48.4625 18.0284 48.4103 18.1947C48.364 18.355 48.3408 18.5182 48.3408 18.6845Z" fill="white"/>
<path d="M55.1137 17.7048C55.021 17.5802 54.8935 17.4733 54.7313 17.3842C54.5691 17.2892 54.3924 17.2417 54.2012 17.2417C54.0332 17.2417 53.8797 17.2774 53.7406 17.3486C53.6016 17.4198 53.532 17.5386 53.532 17.7048C53.532 17.8711 53.6074 17.9898 53.758 18.0611C53.9144 18.1264 54.1404 18.1947 54.4359 18.2659C54.5923 18.3015 54.7487 18.349 54.9051 18.4084C55.0674 18.4678 55.2122 18.5479 55.3397 18.6489C55.4729 18.7439 55.5801 18.8656 55.6612 19.014C55.7423 19.1565 55.7829 19.3316 55.7829 19.5394C55.7829 19.8007 55.7336 20.0233 55.6351 20.2074C55.5424 20.3855 55.415 20.531 55.2528 20.6438C55.0963 20.7566 54.9109 20.8367 54.6966 20.8842C54.488 20.9377 54.2707 20.9644 54.0448 20.9644C53.7203 20.9644 53.4046 20.905 53.0975 20.7863C52.7905 20.6616 52.5355 20.4864 52.3328 20.2608L53.0193 19.6018C53.1352 19.7561 53.2858 19.8838 53.4712 19.9847C53.6566 20.0857 53.8623 20.1361 54.0882 20.1361C54.1636 20.1361 54.2389 20.1272 54.3142 20.1094C54.3953 20.0916 54.4677 20.0649 54.5314 20.0293C54.601 19.9877 54.656 19.9343 54.6966 19.869C54.7371 19.8036 54.7574 19.7235 54.7574 19.6285C54.7574 19.4504 54.6763 19.3227 54.5141 19.2455C54.3576 19.1684 54.1201 19.0912 53.8015 19.014C53.645 18.9784 53.4915 18.9338 53.3409 18.8804C53.196 18.821 53.0657 18.7468 52.9498 18.6578C52.8339 18.5628 52.7412 18.447 52.6717 18.3104C52.6022 18.1739 52.5674 18.0047 52.5674 17.8028C52.5674 17.5653 52.6138 17.3605 52.7065 17.1883C52.8049 17.0161 52.9324 16.8766 53.0888 16.7697C53.2453 16.6569 53.422 16.5738 53.619 16.5204C53.8159 16.4669 54.0187 16.4402 54.2273 16.4402C54.5285 16.4402 54.8211 16.4936 55.105 16.6005C55.3947 16.7074 55.6235 16.8707 55.7916 17.0903L55.1137 17.7048Z" fill="white"/>
<path d="M56.4463 18.6845C56.4463 18.3461 56.5042 18.0403 56.6201 17.7672C56.7417 17.4881 56.904 17.2506 57.1067 17.0547C57.3095 16.8588 57.5499 16.7074 57.828 16.6005C58.1061 16.4936 58.4016 16.4402 58.7145 16.4402C59.0273 16.4402 59.3228 16.4936 59.6009 16.6005C59.879 16.7074 60.1194 16.8588 60.3222 17.0547C60.525 17.2506 60.6843 17.4881 60.8002 17.7672C60.9218 18.0403 60.9827 18.3461 60.9827 18.6845C60.9827 19.0229 60.9218 19.3316 60.8002 19.6107C60.6843 19.8897 60.525 20.1302 60.3222 20.3321C60.1194 20.528 59.879 20.6824 59.6009 20.7952C59.3228 20.908 59.0273 20.9644 58.7145 20.9644C58.4016 20.9644 58.1061 20.908 57.828 20.7952C57.5499 20.6824 57.3095 20.528 57.1067 20.3321C56.904 20.1302 56.7417 19.8897 56.6201 19.6107C56.5042 19.3316 56.4463 19.0229 56.4463 18.6845ZM57.5065 18.6845C57.5065 18.8507 57.5297 19.017 57.576 19.1832C57.6282 19.3494 57.7035 19.4979 57.802 19.6285C57.9005 19.7591 58.025 19.866 58.1757 19.9491C58.3263 20.0322 58.5059 20.0738 58.7145 20.0738C58.923 20.0738 59.1026 20.0322 59.2533 19.9491C59.4039 19.866 59.5285 19.7591 59.627 19.6285C59.7254 19.4979 59.7979 19.3494 59.8442 19.1832C59.8964 19.017 59.9224 18.8507 59.9224 18.6845C59.9224 18.5182 59.8964 18.355 59.8442 18.1947C59.7979 18.0284 59.7254 17.88 59.627 17.7494C59.5285 17.6187 59.4039 17.5148 59.2533 17.4377C59.1026 17.3545 58.923 17.313 58.7145 17.313C58.5059 17.313 58.3263 17.3545 58.1757 17.4377C58.025 17.5148 57.9005 17.6187 57.802 17.7494C57.7035 17.88 57.6282 18.0284 57.576 18.1947C57.5297 18.355 57.5065 18.5182 57.5065 18.6845Z" fill="white"/>
<path d="M62.1589 17.4198H61.3681V16.5649H62.1589V15.9326C62.1589 15.6773 62.185 15.4338 62.2371 15.2023C62.2951 14.9648 62.3878 14.757 62.5152 14.5789C62.6485 14.4008 62.8223 14.2612 63.0367 14.1603C63.251 14.0534 63.5204 14 63.8449 14C63.9607 14 64.0563 14.0059 64.1317 14.0178C64.2128 14.0237 64.2939 14.0386 64.375 14.0623L64.3055 14.9707C64.2475 14.9529 64.1838 14.9381 64.1143 14.9262C64.0505 14.9143 63.981 14.9084 63.9057 14.9084C63.7551 14.9084 63.6334 14.9381 63.5407 14.9975C63.448 15.0568 63.3756 15.134 63.3234 15.229C63.2771 15.324 63.2452 15.4279 63.2278 15.5407C63.2105 15.6535 63.2018 15.7634 63.2018 15.8702V16.5649H64.1664V17.4198H63.2018V20.8397H62.1589V17.4198Z" fill="white"/>
<path d="M64.0845 17.4198V16.5649H64.8145V15.327H65.8399V16.5649H66.8828V17.4198H65.8399V19.4059C65.8399 19.5958 65.8718 19.7532 65.9355 19.8779C66.0051 20.0025 66.1557 20.0649 66.3874 20.0649C66.457 20.0649 66.5323 20.0589 66.6134 20.0471C66.6945 20.0293 66.7669 20.0055 66.8306 19.9758L66.8654 20.813C66.7727 20.8486 66.6626 20.8753 66.5352 20.8931C66.4077 20.9169 66.286 20.9288 66.1702 20.9288C65.8921 20.9288 65.6661 20.8902 65.4923 20.813C65.3185 20.7299 65.1795 20.62 65.0752 20.4835C64.9767 20.341 64.9072 20.1807 64.8666 20.0025C64.8318 19.8185 64.8145 19.6226 64.8145 19.4148V17.4198H64.0845Z" fill="white"/>
<path d="M72.9995 15.8524C72.8836 15.698 72.7185 15.5704 72.5041 15.4695C72.2956 15.3626 72.0841 15.3092 71.8697 15.3092C71.7423 15.3092 71.6148 15.327 71.4874 15.3626C71.3599 15.3923 71.244 15.4427 71.1397 15.514C71.0354 15.5793 70.9485 15.6684 70.879 15.7812C70.8153 15.888 70.7834 16.0187 70.7834 16.173C70.7834 16.3155 70.8124 16.4372 70.8703 16.5382C70.9283 16.6391 71.0065 16.7252 71.105 16.7964C71.2093 16.8677 71.3338 16.93 71.4787 16.9835C71.6235 17.0369 71.7828 17.0903 71.9566 17.1438C72.1536 17.2091 72.3564 17.2833 72.565 17.3664C72.7793 17.4495 72.9734 17.5594 73.1472 17.6959C73.3268 17.8325 73.4717 18.0047 73.5817 18.2125C73.6976 18.4203 73.7556 18.6785 73.7556 18.9873C73.7556 19.3257 73.6947 19.6226 73.5731 19.8779C73.4514 20.1272 73.2892 20.335 73.0864 20.5013C72.8836 20.6675 72.6461 20.7922 72.3738 20.8753C72.1015 20.9584 71.8147 21 71.5134 21C71.1137 21 70.7226 20.9258 70.3402 20.7774C69.9578 20.623 69.645 20.3974 69.4016 20.1005L70.1838 19.3524C70.3344 19.5662 70.5343 19.7354 70.7834 19.8601C71.0383 19.9847 71.2875 20.0471 71.5308 20.0471C71.6583 20.0471 71.7886 20.0322 71.9219 20.0025C72.0551 19.9669 72.1739 19.9105 72.2782 19.8333C72.3883 19.7561 72.4752 19.6612 72.5389 19.5483C72.6084 19.4296 72.6432 19.2841 72.6432 19.112C72.6432 18.9457 72.6055 18.8092 72.5302 18.7023C72.4549 18.5895 72.3535 18.4945 72.226 18.4173C72.0986 18.3342 71.9479 18.2629 71.7741 18.2036C71.6003 18.1442 71.4178 18.0818 71.2266 18.0165C71.0412 17.9572 70.8558 17.8859 70.6705 17.8028C70.4851 17.7197 70.317 17.6098 70.1664 17.4733C70.0216 17.3367 69.9028 17.1705 69.8101 16.9746C69.7174 16.7727 69.6711 16.5233 69.6711 16.2265C69.6711 15.9059 69.7348 15.6298 69.8622 15.3982C69.9955 15.1667 70.1664 14.9767 70.375 14.8282C70.5893 14.6739 70.8298 14.5611 71.0963 14.4898C71.3686 14.4126 71.6438 14.374 71.9219 14.374C72.2347 14.374 72.5505 14.4304 72.8691 14.5433C73.1936 14.6561 73.4746 14.8253 73.7121 15.0509L72.9995 15.8524Z" fill="white"/>
<path d="M74.1497 17.4198V16.5649H74.8797V15.327H75.9052V16.5649H76.9481V17.4198H75.9052V19.4059C75.9052 19.5958 75.9371 19.7532 76.0008 19.8779C76.0703 20.0025 76.221 20.0649 76.4527 20.0649C76.5222 20.0649 76.5975 20.0589 76.6787 20.0471C76.7598 20.0293 76.8322 20.0055 76.8959 19.9758L76.9307 20.813C76.838 20.8486 76.7279 20.8753 76.6004 20.8931C76.473 20.9169 76.3513 20.9288 76.2355 20.9288C75.9574 20.9288 75.7314 20.8902 75.5576 20.813C75.3838 20.7299 75.2447 20.62 75.1405 20.4835C75.042 20.341 74.9724 20.1807 74.9319 20.0025C74.8971 19.8185 74.8797 19.6226 74.8797 19.4148V17.4198H74.1497Z" fill="white"/>
<path d="M77.4594 18.6845C77.4594 18.3461 77.5174 18.0403 77.6333 17.7672C77.7549 17.4881 77.9171 17.2506 78.1199 17.0547C78.3227 16.8588 78.5631 16.7074 78.8412 16.6005C79.1193 16.4936 79.4148 16.4402 79.7276 16.4402C80.0405 16.4402 80.336 16.4936 80.6141 16.6005C80.8922 16.7074 81.1326 16.8588 81.3354 17.0547C81.5382 17.2506 81.6975 17.4881 81.8133 17.7672C81.935 18.0403 81.9958 18.3461 81.9958 18.6845C81.9958 19.0229 81.935 19.3316 81.8133 19.6107C81.6975 19.8897 81.5382 20.1302 81.3354 20.3321C81.1326 20.528 80.8922 20.6824 80.6141 20.7952C80.336 20.908 80.0405 20.9644 79.7276 20.9644C79.4148 20.9644 79.1193 20.908 78.8412 20.7952C78.5631 20.6824 78.3227 20.528 78.1199 20.3321C77.9171 20.1302 77.7549 19.8897 77.6333 19.6107C77.5174 19.3316 77.4594 19.0229 77.4594 18.6845ZM78.5197 18.6845C78.5197 18.8507 78.5428 19.017 78.5892 19.1832C78.6413 19.3494 78.7167 19.4979 78.8151 19.6285C78.9136 19.7591 79.0382 19.866 79.1888 19.9491C79.3395 20.0322 79.5191 20.0738 79.7276 20.0738C79.9362 20.0738 80.1158 20.0322 80.2664 19.9491C80.4171 19.866 80.5416 19.7591 80.6401 19.6285C80.7386 19.4979 80.811 19.3494 80.8574 19.1832C80.9095 19.017 80.9356 18.8507 80.9356 18.6845C80.9356 18.5182 80.9095 18.355 80.8574 18.1947C80.811 18.0284 80.7386 17.88 80.6401 17.7494C80.5416 17.6187 80.4171 17.5148 80.2664 17.4377C80.1158 17.3545 79.9362 17.313 79.7276 17.313C79.5191 17.313 79.3395 17.3545 79.1888 17.4377C79.0382 17.5148 78.9136 17.6187 78.8151 17.7494C78.7167 17.88 78.6413 18.0284 78.5892 18.1947C78.5428 18.355 78.5197 18.5182 78.5197 18.6845Z" fill="white"/>
<path d="M83.007 16.5649H84.0064V17.2774H84.0238C84.1396 17.028 84.3019 16.8261 84.5104 16.6718C84.719 16.5174 84.9623 16.4402 85.2404 16.4402C85.281 16.4402 85.3244 16.4432 85.3708 16.4491C85.4171 16.4491 85.4577 16.455 85.4925 16.4669V17.4466C85.4229 17.4288 85.3621 17.4169 85.31 17.4109C85.2636 17.405 85.2173 17.402 85.1709 17.402C84.9334 17.402 84.7422 17.4466 84.5973 17.5356C84.4525 17.6247 84.3395 17.7316 84.2584 17.8562C84.1773 17.9809 84.1223 18.1086 84.0933 18.2392C84.0643 18.3698 84.0498 18.4737 84.0498 18.5509V20.8397H83.007V16.5649Z" fill="white"/>
<path d="M88.9571 18.2748C88.9571 18.1383 88.9369 18.0076 88.8963 17.883C88.8616 17.7583 88.8036 17.6484 88.7225 17.5534C88.6414 17.4584 88.5371 17.3842 88.4097 17.3308C88.288 17.2714 88.1431 17.2417 87.9751 17.2417C87.6623 17.2417 87.3958 17.3397 87.1756 17.5356C86.9612 17.7256 86.8425 17.972 86.8193 18.2748H88.9571ZM90 18.7557C90 18.8032 90 18.8507 90 18.8982C90 18.9457 89.9971 18.9932 89.9913 19.0407H86.8193C86.8309 19.1951 86.8685 19.3376 86.9323 19.4682C87.0018 19.5929 87.0916 19.7027 87.2017 19.7977C87.3118 19.8868 87.4363 19.958 87.5754 20.0115C87.7144 20.0649 87.8593 20.0916 88.0099 20.0916C88.2706 20.0916 88.4908 20.0441 88.6704 19.9491C88.85 19.8482 88.9977 19.7116 89.1136 19.5394L89.8088 20.1094C89.3975 20.6794 88.8007 20.9644 88.0186 20.9644C87.6941 20.9644 87.3958 20.9139 87.1235 20.813C86.8512 20.7061 86.6136 20.5577 86.4109 20.3677C86.2139 20.1777 86.0574 19.9461 85.9416 19.673C85.8315 19.394 85.7765 19.0793 85.7765 18.729C85.7765 18.3846 85.8315 18.0729 85.9416 17.7939C86.0574 17.5089 86.2139 17.2684 86.4109 17.0725C86.6078 16.8707 86.8396 16.7163 87.1061 16.6094C87.3784 16.4966 87.671 16.4402 87.9838 16.4402C88.2735 16.4402 88.54 16.4907 88.7833 16.5916C89.0325 16.6866 89.2468 16.8321 89.4264 17.028C89.606 17.218 89.7451 17.4584 89.8436 17.7494C89.9479 18.0344 90 18.3698 90 18.7557Z" fill="white"/>
</svg>
